<svg xmlns="http://www.w3.org/2000/svg" viewBox="0 0 512 512" width="512" height="512">
  <defs>
    <linearGradient id="bgGrad" x1="0%" y1="0%" x2="100%" y2="100%">
      <stop offset="0%" stop-color="#0b0b1a"/>
      <stop offset="100%" stop-color="#151530"/>
    </linearGradient>
    <linearGradient id="ctrlGrad" x1="0%" y1="0%" x2="100%" y2="100%">
      <stop offset="0%" stop-color="#00d4ff"/>
      <stop offset="50%" stop-color="#6366f1"/>
      <stop offset="100%" stop-color="#8b5cf6"/>
    </linearGradient>
    <linearGradient id="playGrad" x1="0%" y1="0%" x2="100%" y2="100%">
      <stop offset="0%" stop-color="#ffffff"/>
      <stop offset="100%" stop-color="#a5b4fc"/>
    </linearGradient>
    <filter id="glow" x="-50%" y="-50%" width="200%" height="200%">
      <feGaussianBlur stdDeviation="12" result="blur"/>
      <feMerge><feMergeNode in="blur"/><feMergeNode in="SourceGraphic"/></feMerge>
    </filter>
    <filter id="outerGlow" x="-80%" y="-80%" width="260%" height="260%">
      <feGaussianBlur stdDeviation="24" result="blur"/>
      <feMerge><feMergeNode in="blur"/><feMergeNode in="SourceGraphic"/></feMerge>
    </filter>
    <radialGradient id="centerGlow" cx="50%" cy="45%" r="40%">
      <stop offset="0%" stop-color="#00d4ff" stop-opacity="0.12"/>
      <stop offset="100%" stop-color="#0b0b1a" stop-opacity="0"/>
    </radialGradient>
  </defs>
  <rect width="512" height="512" rx="96" fill="url(#bgGrad)"/>
  <ellipse cx="256" cy="240" rx="160" ry="140" fill="url(#centerGlow)"/>
  <g filter="url(#outerGlow)">
    <path d="M 180 200 C 180 175, 220 160, 256 160 C 292 160, 332 175, 332 200 L 340 210 C 350 225, 355 245, 355 260 L 355 280 C 355 310, 340 335, 320 350 L 305 360 C 295 368, 280 365, 275 355 L 270 340 C 267 330, 262 320, 256 320 C 250 320, 245 330, 242 340 L 237 355 C 232 365, 217 368, 207 360 L 192 350 C 172 335, 157 310, 157 280 L 157 260 C 157 245, 162 225, 172 210 Z" fill="url(#ctrlGrad)" opacity="0.25"/>
  </g>
  <g filter="url(#glow)">
    <path d="M 180 200 C 180 175, 220 160, 256 160 C 292 160, 332 175, 332 200 L 340 210 C 350 225, 355 245, 355 260 L 355 280 C 355 310, 340 335, 320 350 L 305 360 C 295 368, 280 365, 275 355 L 270 340 C 267 330, 262 320, 256 320 C 250 320, 245 330, 242 340 L 237 355 C 232 365, 217 368, 207 360 L 192 350 C 172 335, 157 310, 157 280 L 157 260 C 157 245, 162 225, 172 210 Z" fill="url(#ctrlGrad)" stroke="url(#ctrlGrad)" stroke-width="2.5"/>
  </g>
  <path d="M 190 205 C 190 185, 224 172, 256 172 C 288 172, 322 185, 322 205 L 329 214 C 337 226, 342 244, 342 258 L 342 278 C 342 304, 329 326, 312 339 L 300 347 C 293 352, 283 350, 279 343 L 275 330 C 272 322, 268 314, 256 314 C 244 314, 240 322, 237 330 L 233 343 C 229 350, 219 352, 212 347 L 200 339 C 183 326, 170 304, 170 278 L 170 258 C 170 244, 175 226, 183 214 Z" fill="url(#bgGrad)" fill-opacity="0.5"/>
  <g transform="translate(210, 245)">
    <rect x="-3" y="-12" width="6" height="24" rx="1.5" fill="url(#ctrlGrad)" opacity="0.6"/>
    <rect x="-12" y="-3" width="24" height="6" rx="1.5" fill="url(#ctrlGrad)" opacity="0.6"/>
  </g>
  <g transform="translate(302, 245)">
    <circle cx="0" cy="-8" r="3.5" fill="url(#ctrlGrad)" opacity="0.6"/>
    <circle cx="0" cy="8" r="3.5" fill="url(#ctrlGrad)" opacity="0.6"/>
    <circle cx="-8" cy="0" r="3.5" fill="url(#ctrlGrad)" opacity="0.6"/>
    <circle cx="8" cy="0" r="3.5" fill="url(#ctrlGrad)" opacity="0.6"/>
  </g>
  <g filter="url(#glow)">
    <polygon points="236,240 236,272 264,256" fill="url(#playGrad)" stroke="#ffffff" stroke-width="1.5" opacity="0.95"/>
  </g>
</svg>
